<svg width="58" height="121" viewBox="0 0 58 121" fill="none" xmlns="http://www.w3.org/2000/svg">
<path d="M7.58098 2.98066C7.81732 1.59082 6.88222 0.27254 5.49237 0.036206C4.10253 -0.200129 2.78426 0.734972 2.54792 2.12481L5.06445 2.55273L7.58098 2.98066ZM8.66919 70.6409L6.36435 71.7381L8.66919 70.6409ZM55.6401 112.36C56.9598 111.864 57.6276 110.392 57.1317 109.072L49.0507 87.5668C48.5548 86.2471 47.083 85.5793 45.7633 86.0751C44.4436 86.571 43.7758 88.0429 44.2716 89.3626L51.4548 108.479L32.3386 115.662C31.0189 116.158 30.351 117.63 30.8469 118.949C31.3428 120.269 32.8146 120.937 34.1343 120.441L55.6401 112.36ZM5.06445 2.55273C2.54792 2.12481 2.54783 2.12539 2.5477 2.12614C2.54762 2.12661 2.54746 2.12753 2.5473 2.12848C2.54698 2.13038 2.54654 2.13296 2.54599 2.13622C2.5449 2.14273 2.54335 2.15193 2.54136 2.16381C2.53739 2.18755 2.53166 2.22196 2.52428 2.26677C2.50953 2.35641 2.48817 2.48771 2.46101 2.65865C2.40669 3.00053 2.32915 3.50108 2.23486 4.14426C2.0463 5.43043 1.79059 7.2879 1.51946 9.58799C0.977545 14.1854 0.372388 20.5652 0.120747 27.6942C-0.377748 41.8168 0.484538 59.3863 6.36435 71.7381L8.66919 70.6409L10.974 69.5438C5.66714 58.3955 4.72706 41.9208 5.22287 27.8743C5.46839 20.9189 6.05955 14.6829 6.58967 10.1856C6.85456 7.9384 7.10379 6.12883 7.28617 4.8848C7.37735 4.26287 7.45178 3.78253 7.50306 3.45978C7.5287 3.29842 7.54855 3.17647 7.5618 3.09594C7.56843 3.05568 7.57341 3.02577 7.57664 3.00648C7.57825 2.99683 7.57943 2.98983 7.58016 2.98552C7.58052 2.98336 7.58078 2.98187 7.58091 2.98106C7.58098 2.98066 7.581 2.98055 7.58103 2.98035C7.58102 2.98042 7.58098 2.98066 5.06445 2.55273ZM8.66919 70.6409L6.36435 71.7381C12.258 84.1191 24.2469 94.2671 34.4634 101.228C39.6142 104.737 44.4045 107.496 47.9082 109.378C49.6614 110.32 51.096 111.045 52.097 111.536C52.5975 111.782 52.9899 111.969 53.2597 112.096C53.3946 112.16 53.4989 112.208 53.5708 112.241C53.6067 112.258 53.6345 112.271 53.6541 112.28C53.6638 112.284 53.6715 112.288 53.6771 112.29C53.6799 112.291 53.6821 112.293 53.6838 112.293C53.6847 112.294 53.6856 112.294 53.686 112.294C53.6868 112.295 53.6874 112.295 54.7422 109.97C55.7969 107.646 55.7973 107.646 55.7975 107.646C55.7974 107.646 55.7975 107.646 55.7973 107.646C55.7969 107.646 55.796 107.645 55.7946 107.645C55.7917 107.643 55.7867 107.641 55.7796 107.638C55.7655 107.631 55.7432 107.621 55.7128 107.607C55.6519 107.579 55.559 107.536 55.4356 107.478C55.189 107.361 54.8209 107.186 54.3457 106.953C53.395 106.486 52.0167 105.79 50.3246 104.881C46.9375 103.061 42.3071 100.394 37.338 97.0086C27.3147 90.1796 16.267 80.6629 10.974 69.5438L8.66919 70.6409Z" fill="black"/>
</svg>
