<svg width="148" height="143" viewBox="0 0 148 143" fill="none" xmlns="http://www.w3.org/2000/svg">
<path d="M1.54622 137.66C0.250646 138.216 -0.348988 139.717 0.206896 141.012C0.762781 142.308 2.26368 142.908 3.55925 142.352L2.55273 140.006L1.54622 137.66ZM135.695 1.28964C134.997 0.0645521 133.439 -0.363024 132.213 0.3346L112.25 11.7031C111.025 12.4007 110.597 13.9594 111.295 15.1845C111.992 16.4096 113.551 16.8371 114.776 16.1395L132.522 6.03418L142.627 23.7798C143.325 25.0049 144.883 25.4325 146.108 24.7349C147.333 24.0372 147.761 22.4786 147.063 21.2535L135.695 1.28964ZM2.55273 140.006C3.55925 142.352 3.55977 142.351 3.56052 142.351C3.56108 142.351 3.56206 142.35 3.56316 142.35C3.56537 142.349 3.5685 142.348 3.57252 142.346C3.58057 142.343 3.59222 142.338 3.60744 142.331C3.63789 142.318 3.6826 142.298 3.74123 142.273C3.85849 142.222 4.03143 142.147 4.25728 142.048C4.70895 141.849 5.37229 141.556 6.22503 141.172C7.93043 140.404 10.394 139.276 13.4377 137.827C19.5236 134.931 27.9367 130.75 37.2506 125.612C55.8144 115.371 78.2013 101.195 92.7789 85.6764L90.9184 83.9287L89.0579 82.181C75.0543 97.0883 53.2583 110.951 34.7846 121.142C25.5797 126.22 17.2605 130.354 11.2436 133.218C8.23592 134.649 5.80552 135.762 4.12981 136.516C3.292 136.894 2.64299 137.181 2.20496 137.373C1.98595 137.469 1.8197 137.542 1.70898 137.59C1.65362 137.614 1.61215 137.632 1.5849 137.643C1.57128 137.649 1.56122 137.654 1.55476 137.656C1.55153 137.658 1.54919 137.659 1.54777 137.659C1.54706 137.66 1.54667 137.66 1.54631 137.66C1.54615 137.66 1.54622 137.66 2.55273 140.006ZM90.9184 83.9287L92.7789 85.6764C107.371 70.1431 118.151 49.4805 125.263 32.834C128.829 24.4878 131.493 17.102 133.267 11.799C134.154 9.14667 134.82 7.01315 135.264 5.53844C135.487 4.80102 135.654 4.22815 135.766 3.8373C135.822 3.64189 135.865 3.49195 135.893 3.3897C135.908 3.33857 135.919 3.29936 135.926 3.27234C135.93 3.25883 135.933 3.24837 135.935 3.24099C135.936 3.2373 135.937 3.23438 135.937 3.23223C135.938 3.23116 135.938 3.23013 135.938 3.22959C135.938 3.22876 135.938 3.22812 133.477 2.55281C131.015 1.87749 131.015 1.87724 131.015 1.87719C131.015 1.87743 131.015 1.87756 131.015 1.87804C131.015 1.879 131.014 1.88072 131.013 1.88322C131.012 1.88821 131.01 1.89627 131.007 1.90737C131.001 1.92955 130.991 1.96389 130.978 2.01009C130.952 2.1025 130.913 2.24238 130.859 2.42754C130.753 2.7979 130.592 3.34938 130.376 4.06456C129.945 5.49502 129.295 7.5797 128.425 10.1793C126.686 15.3803 124.069 22.6336 120.568 30.8282C113.546 47.2632 103.047 67.2886 89.0579 82.181L90.9184 83.9287Z" fill="black"/>
</svg>
