<svg width="127" height="164" viewBox="0 0 127 164" fill="none" xmlns="http://www.w3.org/2000/svg">
<path d="M123.626 163.745C124.977 164.148 126.399 163.38 126.802 162.029C127.205 160.678 126.437 159.256 125.086 158.853L124.356 161.299L123.626 163.745ZM36.714 107.295L38.839 105.881L36.714 107.295ZM22.2378 0.927644C21.3402 -0.15951 19.7313 -0.313206 18.6441 0.58436L0.927987 15.2109C-0.15916 16.1085 -0.312855 17.7174 0.584709 18.8046C1.48226 19.8917 3.09119 20.0454 4.17834 19.1479L19.926 6.14645L32.9274 21.8941C33.825 22.9813 35.4339 23.135 36.5211 22.2374C37.6082 21.3399 37.7619 19.7309 36.8644 18.6438L22.2378 0.927644ZM124.356 161.299C125.086 158.853 125.086 158.853 125.086 158.853C125.086 158.853 125.086 158.853 125.085 158.853C125.084 158.852 125.081 158.852 125.078 158.851C125.072 158.849 125.061 158.846 125.047 158.841C125.018 158.833 124.975 158.819 124.916 158.801C124.798 158.766 124.621 158.711 124.388 158.638C123.921 158.492 123.228 158.272 122.336 157.979C120.551 157.392 117.968 156.514 114.793 155.351C108.44 153.024 99.7333 149.562 90.3164 145.029C71.3667 135.905 50.0007 122.65 38.839 105.881L36.714 107.295L34.5891 108.71C46.5581 126.691 69.0131 140.438 88.1017 149.628C97.7041 154.252 106.571 157.776 113.037 160.145C116.271 161.33 118.909 162.227 120.742 162.829C121.659 163.13 122.375 163.358 122.864 163.511C123.109 163.587 123.297 163.645 123.425 163.684C123.489 163.704 123.538 163.719 123.572 163.729C123.588 163.734 123.601 163.738 123.61 163.74C123.615 163.742 123.619 163.743 123.621 163.744C123.623 163.744 123.624 163.744 123.624 163.745C123.625 163.745 123.626 163.745 124.356 161.299ZM36.714 107.295L38.839 105.881C27.68 89.1164 23.583 63.5355 22.3663 41.7504C21.7619 30.9279 21.8736 21.175 22.1369 14.1274C22.2685 10.6052 22.4377 7.7627 22.5737 5.80505C22.6417 4.82632 22.7013 4.06902 22.7437 3.55884C22.765 3.30375 22.7818 3.11045 22.7933 2.98216C22.7991 2.91802 22.8035 2.87013 22.8063 2.8389C22.8078 2.82328 22.8089 2.81182 22.8095 2.80458C22.8099 2.80096 22.8101 2.7984 22.8103 2.79689C22.8103 2.79614 22.8104 2.79581 22.8104 2.79542C22.8104 2.79536 22.8104 2.79556 20.2693 2.55282C17.7282 2.31008 17.7282 2.31081 17.7281 2.31181C17.728 2.3125 17.7279 2.31376 17.7277 2.31514C17.7275 2.3179 17.7271 2.32172 17.7267 2.32658C17.7258 2.33634 17.7244 2.35032 17.7228 2.36846C17.7194 2.40478 17.7145 2.45781 17.7083 2.52717C17.6959 2.66586 17.6781 2.86984 17.656 3.13587C17.6118 3.66792 17.5503 4.4483 17.4807 5.45131C17.3414 7.45709 17.169 10.3543 17.0352 13.9368C16.7676 21.0987 16.6535 31.0157 17.2689 42.0351C18.4919 63.9337 22.6172 90.7241 34.5891 108.71L36.714 107.295Z" fill="black"/>
</svg>
