<svg width="79" height="65" viewBox="0 0 79 65" fill="none" xmlns="http://www.w3.org/2000/svg">
<rect width="79" height="65" rx="5" fill="#F9110B"/>
<path d="M36.8712 24.0154C36.2857 21.6194 33.1723 19.25 25.5882 19.25H20L20.0266 41.7993H25.6681L25.8011 23.5096C25.8011 23.5096 31.6022 22.5778 31.6821 27.1569C31.6821 27.6361 31.6555 30.1919 27.3978 31.6029L27.2913 31.9224L35.2213 42.3318L40.3572 40.415L33.5182 31.8425C33.5182 31.8425 38.2283 29.4465 36.8712 24.0154Z" fill="white"/>
<path d="M40.8098 24.4141L40.7832 28.5406H52.0395L42.8056 44.7804L47.2496 46.7504L58.0003 27.449L55.9779 24.5206L40.8098 24.4141Z" fill="white"/>
</svg>
