<svg width="79" height="65" viewBox="0 0 79 65" fill="none" xmlns="http://www.w3.org/2000/svg">
<rect width="79" height="65" rx="5" fill="#003DFF"/>
<path d="M56.1735 21.8926H49.3616C48.29 21.8925 47.229 22.1054 46.2406 22.5188C45.2521 22.9322 44.3559 23.5379 43.6042 24.3005L38.0087 29.9965L31.1236 37.0077C30.4353 37.7068 29.469 38.1521 28.4871 38.1521H23.863C23.0383 38.1521 22.3074 37.3184 22.5267 36.5262L24.0822 31.1356C24.6094 29.2195 26.4468 27.8475 28.4459 27.8475H32.2042C33.7335 27.8475 35.2108 28.3498 36.4844 29.1939L40.8273 24.7718C38.9496 22.9264 36.4204 21.8923 33.7858 21.8926H26.9009C23.1322 21.8926 19.8854 24.2436 18.8259 27.9098L16.216 36.9455C15.1559 40.6168 18.1473 44.1069 21.9317 44.1069H28.7435C29.8151 44.1069 30.876 43.894 31.8645 43.4807C32.8529 43.0673 33.7491 42.4617 34.5009 41.6991L40.0965 36.0031L46.9813 28.992C47.6704 28.2928 48.6308 27.8475 49.6122 27.8475H54.2317C55.0565 27.8475 55.6933 28.6864 55.474 29.4786L53.9342 34.8795C53.407 36.7954 51.6166 38.1521 49.6174 38.1521H45.9009C44.3716 38.1521 42.8943 37.6497 41.6207 36.8057L37.2778 41.2279C39.1556 43.0731 41.6847 44.1071 44.3193 44.1068H51.2042C54.9729 44.1068 58.2249 41.6419 59.2166 38.0377L61.8004 29.1002C62.7922 25.4811 59.9578 21.8926 56.1735 21.8926Z" fill="white"/>
</svg>
