<svg width="79" height="65" viewBox="0 0 79 65" fill="none" xmlns="http://www.w3.org/2000/svg">
<rect width="79" height="65" rx="5" fill="#DDDDDD"/>
<path fill-rule="evenodd" clip-rule="evenodd" d="M54.5953 17.4016L54.1602 17.8386L53.5858 18.4129L53.0154 18.9834L52.7215 19.2754L47.3418 13.8957H51.0894L54.5953 17.4016Z" fill="#5F2D1E"/>
<path fill-rule="evenodd" clip-rule="evenodd" d="M50.8467 21.1516L50.7268 21.2715L50.1525 21.8458L48.9729 23.0254L39.8438 13.8962H43.5913L50.8467 21.1516Z" fill="#5F2D1E"/>
<path fill-rule="evenodd" clip-rule="evenodd" d="M47.0963 24.9006L46.7192 25.2777L46.1487 25.8501L45.5763 26.4225L45.2225 26.7744L32.3438 13.8957H36.0913L47.0963 24.9006Z" fill="#5F2D1E"/>
<path fill-rule="evenodd" clip-rule="evenodd" d="M43.3458 28.6506L43.2858 28.7106L42.7154 29.283L42.1411 29.8553L41.5706 30.4277L41.472 30.5244L24.8438 13.8962H28.5913L43.3458 28.6506Z" fill="#5F2D1E"/>
<path fill-rule="evenodd" clip-rule="evenodd" d="M53.1208 52.1055H49.3732L32.0469 34.7791L32.1204 34.7057L32.6927 34.1352L33.2651 33.5628L33.8356 32.9904L33.9207 32.9054L53.1208 52.1055Z" fill="#5F2D1E"/>
<path fill-rule="evenodd" clip-rule="evenodd" d="M45.6213 52.1055H41.8737L28.2969 38.5287L30.1707 36.6549L45.6213 52.1055Z" fill="#5F2D1E"/>
<path fill-rule="evenodd" clip-rule="evenodd" d="M38.1237 52.1055H34.3761L24.5488 42.2782L24.6823 42.1448L25.2546 41.5724L26.3994 40.4276L26.4226 40.4044L38.1237 52.1055Z" fill="#5F2D1E"/>
<path fill-rule="evenodd" clip-rule="evenodd" d="M30.6222 52.1055H26.8746L20.7988 46.0277L21.2494 45.5772L21.8218 45.0048L22.6726 44.1539L30.6222 52.1055Z" fill="#5F2D1E"/>
<path d="M36.3905 30.4297L21.0897 15.1289C20.1615 15.9991 19.9778 17.4252 20.002 18.0295V19.8424L20.002 46.8182L36.3905 30.4297Z" fill="url(#paint0_linear_2115_192)"/>
<path d="M56.9113 50.879L39 32.9677C44.6562 27.3115 56.1572 15.8251 56.9113 15.1289C57.6365 15.564 57.9991 17.0143 57.9991 17.812C57.9991 27.1906 58.0011 46.3686 57.9991 48.0509C57.9971 49.7188 57.2739 50.6373 56.9113 50.879Z" fill="url(#paint1_linear_2115_192)"/>
<defs>
<linearGradient id="paint0_linear_2115_192" x1="28.1953" y1="15.1289" x2="28.1953" y2="46.8182" gradientUnits="userSpaceOnUse">
<stop offset="0.0952911" stop-color="#494949"/>
<stop offset="0.515001" stop-color="#7F7F7F"/>
<stop offset="0.863317" stop-color="#494949"/>
</linearGradient>
<linearGradient id="paint1_linear_2115_192" x1="48.5" y1="15.1289" x2="48.5" y2="50.879" gradientUnits="userSpaceOnUse">
<stop offset="0.0952911" stop-color="#494949"/>
<stop offset="0.515001" stop-color="#7F7F7F"/>
<stop offset="0.863317" stop-color="#494949"/>
</linearGradient>
</defs>
</svg>
