<svg width="92" height="125" viewBox="0 0 92 125" fill="none" xmlns="http://www.w3.org/2000/svg">
<path d="M88.0161 124.456C89.9467 124.553 91.5904 123.066 91.6874 121.136C91.7845 119.205 90.2981 117.562 88.3676 117.464L88.1919 120.96L88.0161 124.456ZM5.89097 98.0008L8.80454 96.0614L5.89097 98.0008ZM40.2781 2.61689C39.7898 0.746582 37.8778 -0.373792 36.0075 0.114474L5.52899 8.0712C3.65868 8.55946 2.53831 10.4715 3.02658 12.3418C3.51484 14.2121 5.42685 15.3325 7.29716 14.8442L34.3892 7.77156L41.4618 34.8636C41.9501 36.7339 43.8621 37.8543 45.7324 37.366C47.6027 36.8777 48.7231 34.9657 48.2348 33.0954L40.2781 2.61689ZM88.1919 120.96C88.3676 117.464 88.3678 117.464 88.3677 117.464C88.3673 117.464 88.367 117.464 88.3663 117.464C88.3648 117.464 88.3622 117.464 88.3587 117.464C88.3515 117.464 88.3402 117.463 88.3248 117.462C88.2939 117.461 88.2467 117.458 88.1835 117.455C88.0571 117.448 87.867 117.437 87.617 117.422C87.1171 117.393 86.3777 117.346 85.4295 117.281C83.5328 117.149 80.8025 116.939 77.4832 116.627C70.8386 116.001 61.8628 114.967 52.5035 113.335C43.1219 111.699 33.4709 109.481 25.4285 106.519C17.211 103.493 11.386 99.9396 8.80454 96.0614L5.89097 98.0008L2.97739 99.9401C6.87704 105.799 14.5802 109.984 23.0094 113.088C31.6136 116.257 41.7276 118.561 51.3009 120.231C60.8967 121.904 70.0656 122.959 76.8271 123.596C80.2109 123.914 82.9989 124.129 84.9448 124.264C85.9179 124.331 86.6809 124.379 87.2029 124.41C87.464 124.425 87.6648 124.437 87.8016 124.444C87.87 124.448 87.9224 124.451 87.9583 124.453C87.9763 124.454 87.9901 124.454 87.9998 124.455C88.0046 124.455 88.0084 124.455 88.0111 124.455C88.0125 124.455 88.0137 124.456 88.0144 124.456C88.0154 124.456 88.0161 124.456 88.1919 120.96ZM5.89097 98.0008L8.80454 96.0614C7.71023 94.4174 7.03632 91.8857 7.00128 88.3148C6.96662 84.7827 7.56002 80.5542 8.67339 75.8212C10.8994 66.3578 15.0803 55.3821 19.7315 44.8637C24.3702 34.3733 29.4181 24.4684 33.3122 17.1769C35.2577 13.5341 36.9116 10.5504 38.0775 8.48029C38.6604 7.44536 39.121 6.63915 39.4349 6.09348C39.5918 5.82066 39.7121 5.61301 39.7925 5.4745C39.8327 5.40525 39.863 5.35329 39.8829 5.31911C39.8929 5.30202 39.9003 5.28938 39.905 5.28126C39.9074 5.27719 39.9091 5.27425 39.9102 5.27245C39.9107 5.27155 39.911 5.27105 39.9113 5.2706C39.9114 5.27038 39.9114 5.27045 36.8916 3.50097C33.8718 1.73149 33.8715 1.73214 33.8709 1.73306C33.8705 1.73376 33.8698 1.73498 33.869 1.73635C33.8674 1.73912 33.8651 1.74301 33.8622 1.74804C33.8563 1.7581 33.8478 1.7727 33.8366 1.79174C33.8144 1.82983 33.7818 1.88579 33.7393 1.95908C33.6541 2.10568 33.5291 2.32169 33.3672 2.60314C33.0434 3.166 32.5722 3.99069 31.9783 5.04528C30.7905 7.15422 29.1111 10.1841 27.1376 13.8793C23.1938 21.2638 18.0611 31.3324 13.3294 42.0328C8.61017 52.7052 4.23073 64.1372 1.85937 74.2183C0.674031 79.2574 -0.0405564 84.0853 0.00161909 88.3835C0.0434138 92.643 0.831149 96.7157 2.97739 99.9401L5.89097 98.0008Z" fill="#E4E4E4"/>
</svg>
