<svg width="271" height="194" viewBox="0 0 271 194" fill="none" xmlns="http://www.w3.org/2000/svg">
<path d="M0.0493322 189.155C-0.270725 191.061 1.01519 192.866 2.92151 193.186C4.82782 193.506 6.63265 192.22 6.95271 190.314L3.50102 189.734L0.0493322 189.155ZM269.596 31.5387C271.144 30.3818 271.462 28.1886 270.305 26.64L251.452 1.40493C250.295 -0.143615 248.102 -0.461092 246.553 0.695831C245.005 1.85275 244.687 4.04597 245.844 5.59453L262.602 28.0257L240.171 44.7841C238.623 45.941 238.305 48.1342 239.462 49.6827C240.619 51.2313 242.812 51.5488 244.361 50.3918L269.596 31.5387ZM3.50102 189.734L6.95271 190.314C6.85346 190.905 6.61716 191.288 6.55416 191.388C6.46893 191.522 6.40858 191.586 6.4284 191.564C6.46978 191.517 6.60341 191.381 6.89752 191.12C7.484 190.6 8.31839 189.925 9.46963 188.978C11.7045 187.138 14.7875 184.553 18.0319 181.233C24.5038 174.61 31.7823 164.902 34.4302 151.935L31.001 151.234L27.5717 150.534C25.2944 161.687 18.9892 170.238 13.0256 176.34C10.0521 179.383 7.20445 181.776 5.02151 183.572C3.96383 184.443 2.96752 185.25 2.25474 185.881C1.89922 186.196 1.51609 186.553 1.19271 186.917C1.03015 187.101 0.825429 187.349 0.636226 187.649C0.469244 187.913 0.169365 188.44 0.0493322 189.155L3.50102 189.734ZM31.001 151.234L34.4302 151.935C36.7463 140.592 41.0728 134.037 47.0032 128.66C50.046 125.902 53.5593 123.412 57.6133 120.722C61.6026 118.075 66.2083 115.177 71.063 111.796L69.0626 108.924L67.0621 106.052C62.2816 109.382 57.9277 112.113 53.7434 114.889C49.6239 117.622 45.7497 120.348 42.3015 123.474C35.2501 129.867 30.181 137.756 27.5717 150.534L31.001 151.234ZM69.0626 108.924L71.063 111.796C80.1439 105.471 92.7807 101.181 105.426 98.4073C118.011 95.6472 130.279 94.4585 138.375 94.1601L138.246 90.6625L138.117 87.1649C129.668 87.4763 116.979 88.7072 103.926 91.5698C90.9338 94.4193 77.2516 98.9548 67.0621 106.052L69.0626 108.924ZM138.246 90.6625L138.375 94.1601C146.477 93.8615 150.546 94.5343 152.904 95.3599C155.321 96.2062 155.868 97.0478 158.254 98.6261L160.185 95.7073L162.116 92.7884C160.876 91.9677 158.727 89.982 155.217 88.7532C151.648 87.5036 146.561 86.8536 138.117 87.1649L138.246 90.6625ZM160.185 95.7073L158.254 98.6261C160.591 100.173 161.627 102.979 162.705 107.456L166.107 106.636L169.51 105.817C168.495 101.601 167.03 96.0401 162.116 92.7884L160.185 95.7073ZM166.107 106.636L162.705 107.456C163.076 108.998 162.996 110.075 162.418 111.296C161.744 112.721 160.279 114.565 157.262 117.262L159.595 119.872L161.927 122.481C165.144 119.606 167.46 117.006 168.745 114.292C170.126 111.375 170.185 108.62 169.51 105.817L166.107 106.636ZM159.595 119.872L157.262 117.262C156.41 118.024 154.741 118.8 151.918 119.314C149.167 119.815 145.698 120.002 141.639 119.905C133.527 119.711 123.539 118.401 113.209 116.616L112.613 120.065L112.017 123.514C122.457 125.318 132.844 126.697 141.472 126.903C145.783 127.006 149.774 126.819 153.172 126.201C156.497 125.595 159.663 124.505 161.927 122.481L159.595 119.872ZM112.613 120.065L113.209 116.616C103.77 114.985 98.5972 110.829 95.1235 105.671C91.4452 100.21 89.6316 93.6615 87.1284 86.5554L83.8272 87.7183L80.526 88.8812C82.7958 95.3243 84.9893 103.155 89.3175 109.582C93.8504 116.312 100.684 121.555 112.017 123.514L112.613 120.065ZM83.8272 87.7183L87.1284 86.5554C84.9845 80.4695 85.2639 75.8642 86.7593 72.0136C88.3056 68.032 91.2888 64.4952 95.2238 60.8424L92.8426 58.2772L90.4614 55.7121C86.2677 59.6051 82.3566 64.0142 80.2342 69.4794C78.0608 75.0756 77.897 81.418 80.526 88.8812L83.8272 87.7183ZM92.8426 58.2772L95.2238 60.8424C102.784 53.8247 118.54 45.8524 134.493 42.1527L133.703 38.7432L132.912 35.3337C116.14 39.2232 99.1591 47.6382 90.4614 55.7121L92.8426 58.2772ZM133.703 38.7432L134.493 42.1527C150.654 38.4049 174.616 35.0732 194.976 32.5452L194.545 29.0718L194.113 25.5985C173.78 28.1231 149.476 31.4922 132.912 35.3337L133.703 38.7432ZM194.545 29.0718L194.976 32.5452C215.195 30.0347 229.137 29.42 240.154 29.6633L240.231 26.1642L240.308 22.665C228.878 22.4126 214.588 23.0563 194.113 25.5985L194.545 29.0718ZM240.231 26.1642L240.154 29.6633C251.15 29.9062 258.875 31.0227 267 32.1987L267.501 28.7348L268.002 25.2709C259.841 24.0895 251.759 22.9179 240.308 22.665L240.231 26.1642Z" fill="#E4E4E4"/>
</svg>
