<svg width="79" height="65" viewBox="0 0 79 65" fill="none" xmlns="http://www.w3.org/2000/svg">
<rect width="79" height="65" rx="5" fill="#30C6F6"/>
<path d="M61.4913 20.4863C59.0394 21.0052 57.1471 22.7449 56.4349 25.1154C56.1806 25.9496 56.1806 27.6385 56.4349 28.4626C57.1267 30.772 59.0292 32.583 61.2573 33.0611C63.8414 33.6004 66.4968 32.5219 67.9516 30.3447C68.6333 29.3172 68.9283 28.4015 68.9894 27.1196C69.0504 25.8276 68.8571 24.9424 68.267 23.803C67.5345 22.3786 66.0898 21.168 64.5333 20.6796C63.7804 20.4456 62.1831 20.3439 61.4913 20.4863ZM63.9228 21.7173C64.5841 21.87 65.6625 22.4702 66.1916 22.9789C68.1653 24.8611 68.4196 27.8013 66.802 29.948C65.1742 32.115 62.0712 32.6644 59.7923 31.1892C58.2662 30.1921 57.4116 28.6152 57.4116 26.7941C57.4218 23.3655 60.5146 20.9543 63.9228 21.7173Z" fill="white"/>
<path d="M61.4208 26.6419L61.4514 28.6564H65.4191L65.4497 28.2189L65.4802 27.7916H62.3161V24.6377H61.4005L61.4208 26.6419ZM34.9486 25.7161C33.5141 25.9399 32.222 26.2859 31.0011 26.8047C30.5942 26.9675 30.2788 27.1608 30.2992 27.2218C30.3195 27.2829 30.523 27.873 30.7366 28.5241C30.9503 29.1854 31.1741 29.7246 31.2453 29.7246C31.3064 29.7246 31.6726 29.5822 32.0592 29.4092C32.4458 29.2363 33.1783 28.9819 33.6972 28.8497C36.1084 28.2392 37.7769 28.5037 38.5501 29.6025C38.8045 29.9586 38.8655 30.1621 38.896 30.7522C38.9367 31.3626 38.9062 31.5355 38.662 32.0137C38.2856 32.7971 37.7057 33.3567 35.7625 34.8115C32.629 37.1617 31.3064 38.6979 30.3907 41.0887C30.0652 41.923 29.6582 43.7034 29.6582 44.263V44.5784H42.7824V41.7297H34.1143L34.1754 41.4448C34.3076 40.9056 34.8468 39.9391 35.3962 39.2778C35.9253 38.6267 36.9935 37.7009 38.9469 36.1951C40.8494 34.7301 41.7854 33.6415 42.2534 32.38C42.7214 31.1082 42.64 29.4194 42.0601 28.2799C41.4598 27.1099 40.0457 26.1332 38.4891 25.8179C37.7667 25.6652 35.6709 25.6144 34.9486 25.7161Z" fill="white"/>
<path d="M51.0241 26.4683C50.607 27.0177 48.5112 29.7239 46.3747 32.4912L42.4985 37.5272V39.8265L46.7002 39.8469L50.8918 39.8774L50.9224 42.1461L50.9427 44.4047H54.3001V39.8265H57.047V37.0796H54.3001V25.4814H51.7871L51.0241 26.4683ZM50.9529 33.9257L50.8918 37.0287L48.6231 37.0592C47.3717 37.0694 46.3645 37.0491 46.3849 36.9982C46.4255 36.8761 50.9732 30.7718 50.9936 30.8023C51.0038 30.8125 50.9834 32.2165 50.9529 33.9257ZM16.0814 25.6442C16.0305 25.6849 16 29.9274 16 35.0652V44.4047H19.5608C23.7117 44.4047 24.1797 44.3437 25.6244 43.6417C27.0589 42.9397 28.0153 41.8308 28.4527 40.3454C28.6562 39.6536 28.6664 38.2394 28.4731 37.5069C28.1068 36.1334 26.9775 34.9329 25.6041 34.4649L25.1157 34.3021L25.3701 34.1394C26.9775 33.0915 27.7304 31.0974 27.2319 29.1949C26.8148 27.5569 25.5532 26.4073 23.5795 25.8579C22.9589 25.6849 22.44 25.6544 19.51 25.6137C17.6685 25.5832 16.1221 25.5934 16.0814 25.6442ZM21.8703 28.5438C23.2234 28.7778 23.9864 29.6629 23.9661 30.9651C23.9559 31.7587 23.8542 32.0436 23.4167 32.5421C22.8165 33.2339 22.44 33.356 20.8631 33.3967L19.4591 33.4374V28.4319H20.3442C20.8224 28.4319 21.5142 28.4827 21.8703 28.5438ZM22.8063 36.3674C23.6202 36.5099 24.1085 36.754 24.5765 37.2729C25.0242 37.7714 25.1971 38.3513 25.1259 39.1652C25.0445 40.2131 24.607 40.8439 23.6812 41.2712C23.2234 41.4747 22.9894 41.5052 21.3209 41.5357L19.4591 41.5764V36.2657H20.8122C21.5447 36.2657 22.4502 36.3166 22.8063 36.3674Z" fill="white"/>
</svg>
