<svg width="79" height="65" viewBox="0 0 79 65" fill="none" xmlns="http://www.w3.org/2000/svg">
<rect width="79" height="65" rx="5" fill="black"/>
<path d="M20.2049 40.3151C24.1841 40.3151 27.4098 37.0894 27.4098 33.1102C27.4098 29.131 24.1841 25.9053 20.2049 25.9053C16.2258 25.9053 13 29.131 13 33.1102C13 37.0894 16.2258 40.3151 20.2049 40.3151Z" fill="#F1F2F3"/>
<path d="M30.0586 40.3116V25.6855H35.4449C38.1281 25.6855 40.6297 26.3916 40.6297 29.3572C40.6297 30.729 39.9638 31.9798 39.0158 32.5245C40.327 33.1095 41.2146 34.1182 41.2146 35.9943C41.2146 39.1012 38.8544 40.3116 35.8686 40.3116H30.0586ZM32.3584 33.6542V38.4153H35.9291C37.886 38.4153 38.8544 37.5477 38.8544 35.9943C38.8544 34.3804 37.9061 33.6542 35.808 33.6542H32.3584ZM32.3584 27.5819V31.8789H35.7273C37.3212 31.8789 38.3096 31.2333 38.3096 29.6396C38.3096 28.2476 37.2606 27.5819 35.7273 27.5819H32.3584Z" fill="#F1F2F3"/>
<path d="M42.4648 40.3116V25.6855H47.8512C50.5344 25.6855 53.0359 26.3916 53.0359 29.3572C53.0359 30.729 52.3701 31.9798 51.422 32.5245C52.7332 33.1095 53.6209 34.1182 53.6209 35.9943C53.6209 39.1012 51.2606 40.3116 48.2749 40.3116H42.4648ZM44.7647 33.6542V38.4153H48.3353C50.2923 38.4153 51.2606 37.5477 51.2606 35.9943C51.2606 34.3804 50.3124 33.6542 48.2143 33.6542H44.7647ZM44.7647 27.5819V31.8789H48.1336C49.7274 31.8789 50.7158 31.2333 50.7158 29.6396C50.7158 28.2476 49.6668 27.5819 48.1336 27.5819H44.7647Z" fill="#F1F2F3"/>
<path d="M54.8711 40.3116V25.6855H64.9983V27.6424H57.1709V31.8184H64.5545V33.7551H57.1709V38.3547H64.9983V40.3116H54.8711Z" fill="#F1F2F3"/>
</svg>
