<svg width="79" height="65" viewBox="0 0 79 65" fill="none" xmlns="http://www.w3.org/2000/svg">
<rect width="79" height="65" rx="5" fill="#775298"/>
<path d="M38.7585 33.1546C38.7585 25.5265 32.5747 19.3428 24.9466 19.3428C17.3185 19.3428 11.1348 25.5265 11.1348 33.1546C11.1348 40.7827 17.3185 46.9665 24.9466 46.9665C32.5747 46.9665 38.7585 40.7827 38.7585 33.1546Z" stroke="#FFFF01" stroke-width="0.579721" stroke-miterlimit="10"/>
<path d="M23.3466 29.609C23.1095 29.7829 22.8908 29.9807 22.694 30.1993C22.6369 30.2628 22.3131 30.6843 21.7342 31.4689L21.3025 31.4905C21.5661 30.9843 21.8948 30.5148 22.2801 30.0939C22.7567 29.5387 23.1701 29.1578 23.5205 28.9513C23.7527 28.8153 24.0137 28.7361 24.2823 28.7203C24.4208 28.7473 24.5476 28.8165 24.6454 28.9183C24.7132 29.0046 24.7487 29.112 24.7457 29.2217C24.7455 29.341 24.7315 29.4599 24.7038 29.576C24.5759 30.1325 24.4196 30.6821 24.2353 31.2226C24.0051 31.9403 23.7994 32.5062 23.6183 32.92L23.0711 34.2163L23.0292 34.3966C23.1282 34.2273 23.3288 33.8515 23.631 33.2692C24.7753 31.099 25.6005 29.76 26.1067 29.2522C26.277 29.0803 26.48 28.9441 26.7037 28.8517C26.9274 28.7593 27.1672 28.7124 27.4093 28.7139C27.7062 28.7203 27.9892 28.8413 28.199 29.0516C28.2907 29.1417 28.3625 29.2501 28.4098 29.3697C28.457 29.4894 28.4786 29.6176 28.4732 29.7461C28.48 30.0524 28.3707 30.3499 28.1672 30.5789C28.0914 30.6614 27.9982 30.726 27.8943 30.7679C27.7904 30.8099 27.6785 30.8281 27.5667 30.8214C27.4838 30.8304 27.4 30.8215 27.3209 30.7952C27.2418 30.7689 27.1693 30.7259 27.1084 30.6691C27.0208 30.5662 26.9662 30.3123 26.9446 29.9073C26.8532 29.7245 26.7516 29.6331 26.6386 29.6331C26.5009 29.6453 26.373 29.7092 26.2806 29.8121C25.942 30.1143 25.3051 31.0804 24.3699 32.7106C23.4346 34.3407 22.8489 35.4736 22.6128 36.1093C22.459 36.5613 22.2666 36.9992 22.0376 37.4182C21.9602 37.5452 21.818 37.5997 21.6085 37.5997C21.4671 37.6127 21.3254 37.5778 21.2061 37.5007C21.167 37.4708 21.1353 37.4324 21.1133 37.3884C21.0913 37.3444 21.0796 37.296 21.0791 37.2468C21.085 37.0801 21.1207 36.9159 21.1845 36.7618C21.4866 36.0238 21.9716 34.6645 22.6394 32.6839L23.3771 30.4291C23.4057 30.3004 23.4408 30.1733 23.4824 30.0482L23.5446 29.8933C23.5561 29.8108 23.4862 29.7207 23.3466 29.609Z" fill="#FFFF01"/>
<path d="M26.9697 35.5117H28.8043V37.3437H26.9697V35.5117Z" fill="#FFFF01"/>
<path d="M66.9421 33.0003C66.9421 25.3722 60.7583 19.1885 53.1302 19.1885C45.5021 19.1885 39.3184 25.3722 39.3184 33.0003C39.3184 40.6284 45.5021 46.8122 53.1302 46.8122C60.7583 46.8122 66.9421 40.6284 66.9421 33.0003Z" stroke="#FFFF01" stroke-width="0.579721" stroke-miterlimit="10"/>
<path d="M56.4821 25.7646V37.7305H54.9802V36.3936C54.4355 37.3344 53.4948 37.9451 52.0754 37.9451C50.044 37.9451 48.2793 36.2616 48.2793 33.3238C48.2793 30.3859 50.0453 28.7025 52.0754 28.7025C53.4948 28.7025 54.4355 29.3131 54.9802 30.2539V25.7646H56.4821ZM49.9133 33.3238C49.9133 35.4364 50.92 36.6577 52.4524 36.6577C53.7893 36.6577 55.0437 35.6674 55.0437 33.3238C55.0437 30.9801 53.7893 29.9898 52.4524 29.9898C50.9175 29.9898 49.9133 31.2112 49.9133 33.3238V33.3238Z" fill="#FFFF01"/>
</svg>
