<svg width="79" height="65" viewBox="0 0 79 65" fill="none" xmlns="http://www.w3.org/2000/svg">
<rect width="79" height="65" rx="5" fill="#30C6F6"/>
<path d="M62.8794 25.5622C61.4258 25.8698 60.3039 26.9013 59.8816 28.3067C59.7309 28.8013 59.7309 29.8025 59.8816 30.2911C60.2918 31.6603 61.4197 32.734 62.7407 33.0175C64.2728 33.3371 65.847 32.6978 66.7096 31.407C67.1137 30.7978 67.2886 30.2549 67.3248 29.4949C67.361 28.7289 67.2464 28.2041 66.8966 27.5286C66.4623 26.6841 65.6058 25.9663 64.6829 25.6768C64.2366 25.5381 63.2896 25.4778 62.8794 25.5622ZM64.321 26.2921C64.7131 26.3825 65.3524 26.7384 65.6661 27.04C66.8363 28.1559 66.987 29.899 66.028 31.1717C65.0629 32.4565 63.2232 32.7822 61.8721 31.9076C60.9674 31.3165 60.4607 30.3816 60.4607 29.3019C60.4667 27.2692 62.3004 25.8397 64.321 26.2921Z" fill="white"/>
<path d="M63.3069 28.6209L63.325 29.8152H65.6774L65.6955 29.5558L65.7136 29.3025H63.8377V27.4326H63.2949L63.3069 28.6209ZM20.2583 27.5472C19.6914 27.686 19.3717 28.072 19.3355 28.6631C19.3174 28.9647 19.3415 29.0793 19.4561 29.3025C19.6672 29.6945 20.0412 29.9117 20.5056 29.9117C20.9218 29.9177 21.0968 29.8574 21.3682 29.6342C21.7603 29.3025 21.905 28.7174 21.712 28.259C21.5914 27.9634 21.2596 27.6799 20.9279 27.5834C20.6022 27.4869 20.5358 27.4809 20.2583 27.5472ZM34.3485 27.5834C33.8298 27.7463 33.5403 28.1625 33.5403 28.7294C33.5403 29.1456 33.6428 29.3929 33.9323 29.6342C34.1977 29.8574 34.3726 29.9177 34.7768 29.9177C35.585 29.9177 36.152 29.212 35.965 28.446C35.8022 27.7523 35.0542 27.3542 34.3485 27.5834ZM47.6123 28.072C46.7618 28.2047 45.9958 28.4098 45.272 28.7174C45.0307 28.8139 44.8437 28.9285 44.8558 28.9647C44.8679 29.0009 44.9885 29.3507 45.1152 29.7367C45.2418 30.1288 45.3745 30.4485 45.4168 30.4485C45.453 30.4485 45.6701 30.364 45.8993 30.2615C46.1285 30.159 46.5628 30.0082 46.8704 29.9298C48.2999 29.5679 49.2891 29.7247 49.7476 30.3761C49.8984 30.5872 49.9345 30.7079 49.9526 31.0577C49.9768 31.4196 49.9587 31.5221 49.8139 31.8056C49.5907 32.2701 49.2469 32.6018 48.0949 33.4644C46.2371 34.8577 45.453 35.7685 44.9101 37.1859C44.7171 37.6806 44.4758 38.7361 44.4758 39.0679V39.2548H52.2568V37.5659H47.1177L47.1539 37.3971C47.2323 37.0774 47.552 36.5044 47.8777 36.1123C48.1914 35.7263 48.8247 35.1774 49.9828 34.2847C51.1107 33.4161 51.6656 32.7707 51.9431 32.0228C52.2206 31.2688 52.1723 30.2675 51.8285 29.592C51.4726 28.8983 50.6342 28.3193 49.7114 28.1323C49.2831 28.0418 48.0406 28.0117 47.6123 28.072Z" fill="white"/>
<path d="M56.7704 28.6202C56.5231 28.9459 55.2806 30.5504 54.0139 32.191L51.7158 35.1767V36.5399L54.2069 36.552L56.692 36.5701L56.7101 37.9152L56.7222 39.2542H58.7127V36.5399H60.3412V34.9113H58.7127V28.0352H57.2228L56.7704 28.6202ZM56.7282 33.0415L56.692 34.8812L55.3469 34.8993C54.605 34.9053 54.0079 34.8933 54.02 34.8631C54.0441 34.7907 56.7403 31.1717 56.7523 31.1898C56.7584 31.1958 56.7463 32.0282 56.7282 33.0415ZM11.7133 28.1317C11.6831 28.1558 11.665 30.671 11.665 33.7171V39.2542H13.7762C16.2371 39.2542 16.5146 39.218 17.3711 38.8018C18.2215 38.3856 18.7885 37.7282 19.0479 36.8475C19.1685 36.4374 19.1746 35.599 19.06 35.1647C18.8428 34.3504 18.1733 33.6386 17.359 33.3612L17.0695 33.2647L17.2203 33.1682C18.1733 32.5469 18.6196 31.3647 18.3241 30.2367C18.0768 29.2656 17.3288 28.584 16.1587 28.2583C15.7908 28.1558 15.4831 28.1377 13.746 28.1136C12.6542 28.0955 11.7374 28.1015 11.7133 28.1317ZM15.1454 29.8507C15.9476 29.9894 16.4 30.5142 16.3879 31.2863C16.3819 31.7567 16.3215 31.9256 16.0622 32.2212C15.7063 32.6313 15.4831 32.7037 14.5482 32.7279L13.7158 32.752V29.7844H14.2406C14.5241 29.7844 14.9342 29.8145 15.1454 29.8507ZM15.7003 34.4891C16.1828 34.5736 16.4723 34.7183 16.7498 35.0259C17.0152 35.3215 17.1177 35.6653 17.0755 36.1479C17.0273 36.7691 16.7679 37.1431 16.219 37.3964C15.9476 37.5171 15.8088 37.5352 14.8196 37.5533L13.7158 37.5774V34.4288H14.5181C14.9523 34.4288 15.4892 34.459 15.7003 34.4891ZM24.9349 28.9459C24.7177 29.0123 24.2774 29.145 23.9577 29.2475L23.3666 29.4285V31.2923H21.913L21.9311 32.0583L21.9492 32.8304L22.6609 32.8485L23.3666 32.8666V35.0802C23.3666 36.3107 23.3968 37.4628 23.4269 37.6799C23.5536 38.4279 23.9879 38.9888 24.6695 39.2602C25.3933 39.5437 26.865 39.411 27.7155 38.9828C27.8784 38.8983 28.0111 38.8199 28.0111 38.8018C28.0111 38.7717 27.4622 37.4929 27.432 37.4507C27.42 37.4447 27.2631 37.505 27.0822 37.5894C26.9012 37.6739 26.5876 37.7644 26.3885 37.7825C25.9 37.8367 25.6768 37.7402 25.532 37.4206C25.4295 37.1974 25.4174 36.9863 25.4174 35.0139V32.8606H27.3415L27.5587 32.1669C27.6793 31.7809 27.7879 31.431 27.812 31.3828C27.8362 31.3044 27.6673 31.2923 26.6298 31.2923H25.4174V30.0558C25.4174 29.3742 25.3993 28.8193 25.3752 28.8253C25.345 28.8253 25.152 28.8856 24.9349 28.9459ZM31.6904 31.1415C31.2984 31.2561 30.8339 31.5215 30.4238 31.8834L30.1282 32.1428L30.0679 31.9075C30.0317 31.7809 29.9835 31.5939 29.9654 31.4853L29.9292 31.2923H28.192V39.2542H30.1825V33.6567L30.4419 33.4336C30.5806 33.3129 30.8581 33.1259 31.0571 33.0234C31.5155 32.7882 32.0523 32.764 32.4806 32.9571L32.7581 33.0837L33.0958 32.2634C33.2888 31.811 33.4396 31.419 33.4396 31.3948C33.4396 31.3707 33.313 31.2923 33.1622 31.2259C32.7942 31.0571 32.1187 31.0209 31.6904 31.1415ZM19.5063 35.2733V39.2542H21.5571V31.2923H19.5063V35.2733ZM33.7412 35.2733V39.2542H35.792V31.2923H33.7412V35.2733ZM36.1901 31.3647C36.2142 31.4069 36.8596 32.2936 37.6196 33.331C38.3736 34.3745 38.9828 35.2552 38.9647 35.2913C38.9466 35.3336 38.2831 36.2323 37.4869 37.2939L36.0454 39.224L37.0708 39.2421C37.6558 39.2482 38.1263 39.2301 38.1685 39.1999C38.2047 39.1698 38.645 38.5847 39.1396 37.9031C39.6403 37.2215 40.0746 36.6666 40.1047 36.6666C40.1409 36.6666 40.5812 37.2517 41.0939 37.9634L42.0228 39.2542H43.0723C43.8987 39.2542 44.1158 39.2361 44.0796 39.1758C44.0555 39.1396 43.3981 38.2409 42.62 37.1853C41.8419 36.1358 41.2206 35.2371 41.2387 35.1948C41.2568 35.1586 41.9082 34.266 42.6803 33.2225L44.0917 31.3225L43.0965 31.3044C42.5476 31.2983 42.0711 31.2983 42.0349 31.3104C42.0047 31.3285 41.5704 31.8955 41.0698 32.5771C40.5752 33.2647 40.1469 33.8196 40.1228 33.8256C40.1047 33.8256 39.6704 33.2526 39.1638 32.559L38.2409 31.2923H37.1974C36.3711 31.2923 36.1539 31.3104 36.1901 31.3647Z" fill="white"/>
</svg>
