<svg width="79" height="65" viewBox="0 0 79 65" fill="none" xmlns="http://www.w3.org/2000/svg">
<rect width="79" height="65" rx="5" fill="black"/>
<path d="M58.1827 14.2337C52.246 16.6925 26.7903 27.2366 19.7569 30.1104C15.04 31.9511 17.8013 33.677 17.8013 33.677C17.8013 33.677 21.8278 35.0574 25.2796 36.0929C28.7309 37.1283 30.5716 35.9781 30.5716 35.9781L46.7933 25.0485C52.5457 21.1368 51.1652 24.358 49.7843 25.7389C46.7933 28.7304 41.8462 33.4469 37.7044 37.2437C35.8637 38.8542 36.7838 40.2347 37.5896 40.9251C40.5806 43.4563 48.7494 48.6336 49.2092 48.9785C51.6395 50.6991 56.4202 53.1758 57.1473 47.9431L60.0235 29.8807C60.9441 23.7833 61.8642 18.1458 61.979 16.5352C62.3245 12.6231 58.1827 14.2337 58.1827 14.2337Z" fill="white"/>
</svg>
