<svg width="79" height="65" viewBox="0 0 79 65" fill="none" xmlns="http://www.w3.org/2000/svg">
<rect width="79" height="65" rx="5" fill="#E30613"/>
<path d="M33.4499 55.1661C32.29 55.2953 31.1273 55.3961 29.9631 55.4531C29.9631 55.4531 15.3172 49.056 15.4938 35.3245C15.6303 24.6675 20.5916 21.5529 20.5916 21.5529C20.5916 21.5529 24.3544 23.1316 27.1236 26.0785C29.4583 28.5655 30.839 31.727 30.839 31.727C30.839 31.727 32.1856 24.2774 39.3069 18.2224C49.7478 8.76518 61.0329 9.56272 61.0329 9.56272C61.0329 9.56272 63.4276 15.0011 63.5071 22.4354C63.6881 39.7995 53.1523 52.3374 36.7636 54.7322C35.662 54.8961 34.5561 55.0422 33.4499 55.1661Z" fill="white"/>
<mask id="mask0_2113_148" style="mask-type:luminance" maskUnits="userSpaceOnUse" x="28" y="17" width="30" height="38">
<path d="M31.6964 33.6106C31.0784 34.9925 30.3404 36.9594 29.5995 39.6976C29.5776 39.7742 29.5625 39.8512 29.538 39.9265C29.3585 40.4556 29.2559 40.6305 29.2006 40.586C27.8687 47.6551 29.3433 52.983 29.8695 54.5598C29.9091 54.5767 31.5628 54.5354 32.3086 54.4402C46.525 52.6712 57.5303 40.5199 57.5303 25.7835C57.5303 22.8778 57.1036 20.0753 56.3061 17.4322C45.4786 17.9075 36.2049 24.3785 31.6964 33.6106Z" fill="white"/>
</mask>
<g mask="url(#mask0_2113_148)">
<path d="M31.6964 33.6106C31.0784 34.9925 30.3404 36.9594 29.5995 39.6976C29.5776 39.7742 29.5625 39.8512 29.538 39.9265C29.3585 40.4556 29.2559 40.6305 29.2006 40.586C27.8687 47.6551 29.3433 52.983 29.8695 54.5598C29.9091 54.5767 31.5628 54.5354 32.3086 54.4402C46.525 52.6712 57.5303 40.5199 57.5303 25.7835C57.5303 22.8778 57.1036 20.0753 56.3061 17.4322C45.4786 17.9075 36.2049 24.3785 31.6964 33.6106Z" fill="url(#paint0_linear_2113_148)"/>
</g>
<mask id="mask1_2113_148" style="mask-type:luminance" maskUnits="userSpaceOnUse" x="18" y="27" width="13" height="28">
<path d="M18.9004 37.4992C18.9004 45.0896 23.4011 51.6155 29.8675 54.5625C29.3413 52.9857 27.8667 47.6578 29.1986 40.5887C29.0556 40.4749 29.2644 38.8047 29.3996 37.875C29.5818 36.6399 29.7813 35.5292 30.007 34.4908C27.9545 31.4716 25.1672 28.9956 21.8901 27.3357C20.0019 30.2627 18.9004 33.7511 18.9004 37.4992Z" fill="white"/>
</mask>
<g mask="url(#mask1_2113_148)">
<path d="M18.9004 37.4992C18.9004 45.0896 23.4011 51.6155 29.8675 54.5625C29.3413 52.9857 27.8667 47.6578 29.1986 40.5887C29.0556 40.4749 29.2644 38.8047 29.3996 37.875C29.5818 36.6399 29.7813 35.5292 30.007 34.4908C27.9545 31.4716 25.1672 28.9956 21.8901 27.3357C20.0019 30.2627 18.9004 33.7511 18.9004 37.4992Z" fill="url(#paint1_linear_2113_148)"/>
</g>
<defs>
<linearGradient id="paint0_linear_2113_148" x1="42.5299" y1="32.0412" x2="47.8165" y2="54.4367" gradientUnits="userSpaceOnUse">
<stop stop-color="#00A13A"/>
<stop offset="0.78125" stop-color="#94C11F"/>
<stop offset="1" stop-color="#94C11F"/>
</linearGradient>
<linearGradient id="paint1_linear_2113_148" x1="22.3932" y1="29.7362" x2="29.012" y2="53.9215" gradientUnits="userSpaceOnUse">
<stop stop-color="#00A13A"/>
<stop offset="0.78125" stop-color="#94C11F"/>
<stop offset="1" stop-color="#94C11F"/>
</linearGradient>
</defs>
</svg>
