<svg width="79" height="65" viewBox="0 0 79 65" fill="none" xmlns="http://www.w3.org/2000/svg">
<rect width="79" height="65" rx="5" fill="url(#paint0_linear_2107_288)"/>
<path d="M60.1537 42.0072V39.8846H65.857C66.6503 39.8846 67.1432 40.1638 67.1432 40.9361C67.1432 41.7084 66.6927 42.0072 65.857 42.0072H60.1537ZM60.1537 37.6755V35.5529H65.6415C66.4788 35.5529 66.9294 35.8958 66.9294 36.6028C66.9294 37.3098 66.4788 37.6755 65.6415 37.6755H60.1537ZM57.4342 33.3438V44.2163H65.8406C68.2206 44.2163 69.9998 43.2726 69.9998 41.15C70.0064 40.6312 69.8619 40.1216 69.584 39.6835C69.306 39.2455 68.9066 38.8978 68.4344 38.6829C68.8354 38.4555 69.1679 38.1247 69.3976 37.7249C69.6273 37.3252 69.7457 36.8711 69.7403 36.4101C69.7403 34.2435 67.9186 33.3438 65.6235 33.3438H57.4342ZM46.4356 30.8555V32.6515L54.0683 31.7943V30.8506L46.4356 30.8555ZM47.8084 33.3438H45.2995V44.2163H48.1724L52.6744 36.8183H52.7396L52.6107 44.2163H55.1408V33.3438H52.2467L47.7431 40.763H47.6794L47.8084 33.3438ZM40.1055 40.314H37.7647L38.8796 35.8093H38.9433L40.1055 40.314ZM37.4481 33.3438L33.9288 44.2163H36.7168L37.2065 42.4791H40.7013L41.2383 44.2163H44.0247L40.5087 33.3438H37.4481ZM26.8527 38.0788V35.5301H30.4552C31.335 35.5301 31.7611 36.0199 31.7611 36.7954C31.7611 37.571 31.3105 38.0837 30.4552 38.0837L26.8527 38.0788ZM30.3703 33.3438H24.2165V44.2163H26.8527V40.2699H30.3703C32.7502 40.2699 34.3369 39.0911 34.3369 36.7954C34.3369 34.4998 32.7274 33.3438 30.3703 33.3438V33.3438ZM22.829 46.4254V41.9435H21.306V33.3438H11.5513L11.3799 38.3613C11.3359 39.6266 11.0143 40.9132 10.2862 41.9435H9V46.4254H11.7015V44.2163H20.1275V46.4254H22.829ZM13.9525 38.5768L14.0602 35.6166H18.6307V41.9435H13.0808C13.6178 41.0422 13.9182 39.7981 13.9606 38.5768" fill="#33D163"/>
<path d="M53.2216 18.8028H50.5413V29.6753H53.5007L59.8259 22.1042H59.8896L59.8471 29.6753H62.5275V18.8028H59.568L53.2428 26.3723H53.1791L53.2216 18.8028ZM43.7019 20.9466V29.6753H46.2108V20.9466H49.1261V18.8028H40.7849V20.9466H43.7019ZM33.0461 18.8028H30.6221V29.6753H33.4526L37.0551 22.3198H37.1188L36.9474 29.6753H39.3714V18.8028H36.5409L32.9384 26.1502H32.8731L33.0461 18.8028ZM29.1645 26.947L26.6344 25.853C25.8411 27.2899 24.5548 27.5903 22.9894 27.5903C20.4168 27.5903 19.1077 26.4474 19.1077 24.3085V24.1713C19.1077 22.0275 20.4136 20.8911 22.9894 20.8911C24.5548 20.8911 25.8411 21.1915 26.6344 22.6283L29.1645 21.5344C27.9631 19.0673 25.5407 18.5742 22.9894 18.5742C18.8727 18.5742 16.2969 20.6968 16.2969 24.0439V24.4505C16.2969 27.8189 18.8694 29.9202 22.9894 29.9202C25.5407 29.9202 27.9631 29.4304 29.1645 26.9601" fill="white"/>
<defs>
<linearGradient id="paint0_linear_2107_288" x1="0" y1="0" x2="82.5" y2="65" gradientUnits="userSpaceOnUse">
<stop offset="0.339207" stop-color="#6E17BE"/>
<stop offset="1" stop-color="#00DB2A"/>
</linearGradient>
</defs>
</svg>
