<svg width="79" height="65" viewBox="0 0 79 65" fill="none" xmlns="http://www.w3.org/2000/svg">
<rect width="79" height="65" rx="5" fill="#020E1E"/>
<mask id="mask0_2107_261" style="mask-type:luminance" maskUnits="userSpaceOnUse" x="23" y="24" width="48" height="13">
<path d="M70.1863 24.0557H23.4443V36.5177H70.1863V24.0557Z" fill="white"/>
</mask>
<g mask="url(#mask0_2107_261)">
<path d="M26.4201 36.5215C25.8268 36.5215 25.2567 36.4348 24.7097 36.2616C24.172 36.0787 23.7503 35.8524 23.4443 35.5828L23.8893 34.7742C24.1953 35.0245 24.58 35.2315 25.0435 35.3952C25.507 35.5492 25.989 35.6262 26.4897 35.6262C27.1571 35.6262 27.6485 35.5203 27.9636 35.3085C28.2881 35.0871 28.4504 34.7791 28.4504 34.3843C28.4504 34.1052 28.3623 33.8885 28.1861 33.7345C28.01 33.5709 27.7875 33.4505 27.5186 33.3735C27.2498 33.2868 26.8929 33.205 26.4479 33.128C25.8546 33.0125 25.3772 32.897 25.0157 32.7815C24.6541 32.6563 24.3436 32.4493 24.084 32.1605C23.8337 31.8717 23.7085 31.4722 23.7085 30.9619C23.7085 30.3265 23.9635 29.8067 24.4733 29.4024C24.9832 28.9981 25.6924 28.7959 26.6009 28.7959C27.0737 28.7959 27.5465 28.8633 28.0193 28.9981C28.4921 29.1232 28.8814 29.2917 29.1873 29.5035L28.7563 30.3265C28.1537 29.8934 27.4352 29.6767 26.6009 29.6767C25.9705 29.6767 25.4931 29.7923 25.1686 30.0233C24.8534 30.2544 24.6958 30.5576 24.6958 30.9331C24.6958 31.2219 24.7839 31.4529 24.96 31.6262C25.1455 31.7995 25.3726 31.9295 25.6414 32.0161C25.9103 32.0931 26.2811 32.1749 26.7539 32.2616C27.3379 32.3771 27.806 32.4926 28.1583 32.6082C28.5106 32.7237 28.8119 32.921 29.0622 33.2002C29.3125 33.4794 29.4376 33.8645 29.4376 34.3555C29.4376 35.0197 29.1688 35.5492 28.6311 35.9439C28.1027 36.329 27.3657 36.5215 26.4201 36.5215Z" fill="white"/>
<path d="M37.634 32.9692H31.5156C31.5713 33.7586 31.8632 34.3988 32.3917 34.8897C32.9201 35.3711 33.5875 35.6118 34.3941 35.6118C34.8483 35.6118 35.2655 35.53 35.6455 35.3663C36.0257 35.193 36.3547 34.9427 36.6329 34.6154L37.189 35.2797C36.8646 35.684 36.4567 35.9921 35.9654 36.2039C35.4833 36.4156 34.9503 36.5215 34.3662 36.5215C33.6154 36.5215 32.9479 36.3579 32.3639 36.0306C31.7891 35.6936 31.3395 35.2315 31.015 34.6443C30.6906 34.057 30.5283 33.3928 30.5283 32.6515C30.5283 31.9102 30.6813 31.2459 30.9872 30.6587C31.3024 30.0715 31.7289 29.6142 32.2665 29.2869C32.8135 28.9595 33.4253 28.7959 34.102 28.7959C34.7788 28.7959 35.386 28.9595 35.9237 29.2869C36.4613 29.6142 36.8832 30.0715 37.189 30.6587C37.495 31.2363 37.648 31.9006 37.648 32.6515L37.634 32.9692ZM34.102 29.6767C33.3975 29.6767 32.8042 29.9126 32.3222 30.3843C31.8494 30.8464 31.5805 31.4529 31.5156 32.2038H36.7024C36.6375 31.4529 36.364 30.8464 35.882 30.3843C35.4092 29.9126 34.8159 29.6767 34.102 29.6767Z" fill="white"/>
<path d="M43.383 28.7959C44.3007 28.7959 45.0284 29.0751 45.5661 29.6334C46.1131 30.1822 46.3866 30.9861 46.3866 32.045V36.4493H45.3992V32.1461C45.3992 31.3567 45.2092 30.755 44.8291 30.341C44.449 29.927 43.9067 29.7201 43.2022 29.7201C42.4141 29.7201 41.7885 29.9656 41.3249 30.4565C40.8706 30.9379 40.6435 31.607 40.6435 32.4637V36.4493H39.6562V28.8536H40.6018V30.2544C40.8706 29.7923 41.2415 29.4361 41.7143 29.1858C42.1963 28.9259 42.7526 28.7959 43.383 28.7959Z" fill="white"/>
<path d="M52.1258 36.5215C51.4027 36.5215 50.754 36.3579 50.1789 36.0306C49.6135 35.7032 49.1685 35.2459 48.8441 34.6587C48.5197 34.0618 48.3574 33.3928 48.3574 32.6515C48.3574 31.9102 48.5197 31.2459 48.8441 30.6587C49.1685 30.0715 49.6135 29.6142 50.1789 29.2869C50.754 28.9595 51.4027 28.7959 52.1258 28.7959C52.7562 28.7959 53.3171 28.9259 53.8085 29.1858C54.3088 29.4361 54.7031 29.8067 54.9905 30.2977L54.2536 30.8176C54.0125 30.4421 53.7065 30.1629 53.3358 29.98C52.9647 29.7875 52.5615 29.6912 52.1258 29.6912C51.5974 29.6912 51.1198 29.8163 50.6935 30.0667C50.2764 30.3073 49.9472 30.6539 49.7062 31.1063C49.4745 31.5588 49.3587 32.0738 49.3587 32.6515C49.3587 33.2388 49.4745 33.7586 49.7062 34.211C49.9472 34.6539 50.2764 35.0005 50.6935 35.2508C51.1198 35.4915 51.5974 35.6118 52.1258 35.6118C52.5615 35.6118 52.9647 35.5203 53.3358 35.3374C53.7065 35.1545 54.0125 34.8753 54.2536 34.4999L54.9905 35.0197C54.7031 35.5107 54.3088 35.8861 53.8085 36.1461C53.3078 36.3964 52.7469 36.5215 52.1258 36.5215Z" fill="white"/>
<path d="M63.1779 32.9692H57.0595C57.1152 33.7586 57.4071 34.3988 57.9354 34.8897C58.4638 35.3711 59.1316 35.6118 59.938 35.6118C60.3924 35.6118 60.8095 35.53 61.1895 35.3663C61.5695 35.193 61.8988 34.9427 62.1768 34.6154L62.7332 35.2797C62.4084 35.684 62.0008 35.9921 61.5094 36.2039C61.0273 36.4156 60.4941 36.5215 59.91 36.5215C59.1593 36.5215 58.4919 36.3579 57.9078 36.0306C57.3331 35.6936 56.8835 35.2315 56.5588 34.6443C56.2344 34.057 56.0723 33.3928 56.0723 32.6515C56.0723 31.9102 56.2251 31.2459 56.5312 30.6587C56.8462 30.0715 57.2725 29.6142 57.8103 29.2869C58.3573 28.9595 58.969 28.7959 59.6458 28.7959C60.3225 28.7959 60.9298 28.9595 61.4675 29.2869C62.0052 29.6142 62.4271 30.0715 62.7332 30.6587C63.0388 31.2363 63.1917 31.9006 63.1917 32.6515L63.1779 32.9692ZM59.6458 29.6767C58.9414 29.6767 58.348 29.9126 57.8659 30.3843C57.3932 30.8464 57.1246 31.4529 57.0595 32.2038H62.2463C62.1812 31.4529 61.9081 30.8464 61.426 30.3843C60.9529 29.9126 60.3599 29.6767 59.6458 29.6767Z" fill="white"/>
<path d="M67.1415 27.9431C67.2387 27.8131 67.2248 27.6109 67.2248 27.4376H67.4057C67.3919 27.6109 67.3777 27.8131 67.4752 27.9431L68.7547 29.6181L69.3107 29.185L67.9479 27.3366C67.837 27.2066 67.6561 27.1633 67.489 27.12L67.5447 26.9467C67.6975 26.99 67.8784 27.0766 68.0316 27.0044L70.1452 26.1813L69.881 25.4882L67.9203 26.1958C67.767 26.2535 67.6699 26.4413 67.5728 26.5857L67.4333 26.4701C67.5309 26.3402 67.6561 26.1813 67.6561 26.0225L67.6142 24.0586H66.9192L66.9606 26.0225C66.9606 26.1813 67.0996 26.3402 67.1972 26.4701L67.0582 26.5857C66.9606 26.4413 66.8635 26.268 66.7103 26.2102L64.7495 25.4882L64.4854 26.1813L66.6131 27.0044C66.766 27.0766 66.9468 26.99 67.0996 26.9467L67.1553 27.12C66.9887 27.1633 66.794 27.1922 66.6964 27.3366L65.2922 29.185L65.8482 29.6181L67.1415 27.9431Z" fill="white"/>
</g>
<path d="M31.3179 40.4617C41.104 40.4617 51.1304 41.1308 60.8495 39.8028C63.378 39.4573 75.0432 37.8296 68.9249 33.0943C62.316 27.9796 52.6079 26.9416 44.6995 26.1462C35.5693 25.2278 25.5376 24.5005 16.4367 26.1462C12.6073 26.8386 6.42576 28.2435 8.99608 32.9146" stroke="white" stroke-width="0.414194" stroke-linecap="round"/>
</svg>
