<svg width="203" height="196" viewBox="0 0 203 196" fill="none" xmlns="http://www.w3.org/2000/svg">
<path d="M2.12092 188.749C0.344531 189.512 -0.477641 191.569 0.284544 193.346C1.04673 195.122 3.10465 195.944 4.88104 195.182L3.50098 191.966L2.12092 188.749ZM186.055 1.76883C185.099 0.0890829 182.962 -0.497179 181.282 0.459353L153.909 16.047C152.229 17.0035 151.643 19.1406 152.599 20.8204C153.556 22.5001 155.693 23.0864 157.373 22.1298L181.704 8.27418L195.56 32.6056C196.516 34.2854 198.654 34.8717 200.333 33.9151C202.013 32.9586 202.599 30.8215 201.643 29.1417L186.055 1.76883ZM3.50098 191.966C4.88104 195.182 4.88175 195.182 4.88278 195.182C4.88354 195.181 4.88488 195.181 4.8864 195.18C4.88943 195.179 4.89371 195.177 4.89923 195.174C4.91026 195.17 4.92624 195.163 4.94711 195.154C4.98886 195.136 5.05016 195.109 5.13055 195.074C5.29133 195.005 5.52846 194.901 5.83811 194.765C6.45742 194.493 7.36693 194.091 8.53615 193.565C10.8745 192.512 14.2523 190.965 18.4256 188.979C26.7701 185.007 38.3055 179.275 51.076 172.23C76.5293 158.189 107.224 138.751 127.212 117.473L124.661 115.077L122.11 112.681C102.909 133.121 73.0245 152.127 47.6948 166.101C35.0738 173.063 23.6671 178.732 15.4172 182.658C11.2933 184.621 7.96094 186.147 5.66334 187.181C4.5146 187.698 3.62473 188.092 3.02414 188.356C2.72385 188.488 2.4959 188.587 2.34409 188.653C2.26818 188.686 2.21132 188.71 2.17396 188.727C2.15529 188.735 2.14149 188.741 2.13263 188.744C2.1282 188.746 2.125 188.748 2.12305 188.748C2.12207 188.749 2.12154 188.749 2.12105 188.749C2.12083 188.749 2.12092 188.749 3.50098 191.966ZM124.661 115.077L127.212 117.473C147.219 96.1753 162 67.8444 171.752 45.02C176.641 33.5764 180.294 23.4495 182.726 16.1784C183.943 12.5418 184.855 9.61647 185.465 7.59445C185.77 6.58335 185.999 5.79789 186.153 5.26199C186.23 4.99403 186.288 4.78846 186.327 4.64825C186.347 4.57815 186.362 4.52439 186.372 4.48735C186.377 4.46882 186.381 4.45447 186.384 4.44436C186.386 4.43929 186.387 4.43531 186.388 4.43235C186.388 4.43088 186.388 4.42947 186.389 4.42874C186.389 4.4276 186.389 4.42673 183.014 3.50078C179.638 2.57484 179.639 2.5745 179.639 2.57443C179.639 2.57474 179.638 2.57494 179.638 2.5756C179.638 2.57691 179.637 2.57928 179.636 2.58269C179.634 2.58953 179.631 2.6006 179.627 2.6158C179.619 2.64624 179.606 2.69331 179.588 2.75666C179.552 2.88336 179.498 3.07514 179.425 3.32904C179.279 3.83684 179.058 4.59299 178.763 5.57358C178.171 7.53493 177.28 10.3933 176.088 13.9577C173.702 21.0888 170.115 31.0341 165.315 42.2698C155.687 64.8042 141.292 92.2615 122.11 112.681L124.661 115.077Z" fill="black"/>
</svg>
