<svg width="79" height="166" viewBox="0 0 79 166" fill="none" xmlns="http://www.w3.org/2000/svg">
<path d="M10.3938 4.08771C10.7179 2.18207 9.43573 0.37455 7.53009 0.0505066C5.62445 -0.273537 3.81693 1.0086 3.49289 2.91424L6.94336 3.50098L10.3938 4.08771ZM76.2887 154.06C78.0982 153.38 79.0139 151.362 78.334 149.553L67.2539 120.066C66.574 118.256 64.5559 117.341 62.7465 118.02C60.937 118.7 60.0213 120.718 60.7012 122.528L70.5502 148.739L44.3395 158.588C42.5301 159.267 41.6144 161.285 42.2943 163.095C42.9742 164.904 44.9923 165.82 46.8018 165.14L76.2887 154.06ZM6.94336 3.50098C3.49289 2.91424 3.49275 2.91503 3.49258 2.91606C3.49247 2.91671 3.49226 2.91797 3.49204 2.91927C3.49159 2.92188 3.491 2.92542 3.49024 2.92988C3.48874 2.93881 3.48661 2.95143 3.48389 2.96771C3.47844 3.00026 3.47059 3.04744 3.46048 3.10889C3.44025 3.23179 3.41096 3.41181 3.37372 3.6462C3.29924 4.11495 3.19293 4.80128 3.06364 5.68315C2.8051 7.44665 2.45449 9.99347 2.08274 13.1472C1.3397 19.4508 0.509961 28.1983 0.164931 37.9731C-0.518569 57.3369 0.663733 81.4267 8.72568 98.3626L11.8859 96.8583L15.0461 95.3539C7.76972 80.0683 6.48076 57.4795 7.16057 38.22C7.4972 28.6832 8.30776 20.1329 9.03461 13.9666C9.39781 10.8854 9.73954 8.40425 9.98961 6.69853C10.1146 5.84578 10.2167 5.18718 10.287 4.74465C10.3221 4.5234 10.3494 4.3562 10.3675 4.24578C10.3766 4.19058 10.3834 4.14957 10.3879 4.12311C10.3901 4.10988 10.3917 4.10029 10.3927 4.09437C10.3932 4.09142 10.3935 4.08938 10.3937 4.08827C10.3938 4.08771 10.3939 4.08757 10.3939 4.08729C10.3939 4.08738 10.3938 4.08771 6.94336 3.50098ZM11.8859 96.8583L8.72568 98.3626C16.8066 115.338 33.2448 129.253 47.2529 138.797C54.3153 143.608 60.8834 147.391 65.6874 149.972C68.0913 151.264 70.0583 152.257 71.4307 152.93C72.117 153.267 72.655 153.524 73.0249 153.698C73.2099 153.785 73.3529 153.852 73.4515 153.898C73.5007 153.92 73.5389 153.938 73.5657 153.95C73.5791 153.956 73.5896 153.961 73.5972 153.965C73.6011 153.966 73.6042 153.968 73.6065 153.969C73.6077 153.969 73.6089 153.97 73.6095 153.97C73.6106 153.971 73.6114 153.971 75.0576 150.784C76.5038 147.597 76.5043 147.597 76.5046 147.597C76.5045 147.597 76.5046 147.597 76.5044 147.597C76.5038 147.597 76.5026 147.596 76.5006 147.595C76.4966 147.593 76.4898 147.59 76.4801 147.586C76.4608 147.577 76.4301 147.563 76.3884 147.544C76.305 147.505 76.1776 147.446 76.0085 147.366C75.6702 147.207 75.1655 146.966 74.5139 146.646C73.2105 146.007 71.3207 145.053 69.0006 143.806C64.3565 141.311 58.0076 137.654 51.1943 133.012C37.4511 123.648 22.3035 110.6 15.0461 95.3539L11.8859 96.8583Z" fill="black"/>
</svg>
