<svg width="174" height="225" viewBox="0 0 174 225" fill="none" xmlns="http://www.w3.org/2000/svg">
<path d="M169.506 224.515C171.358 225.068 173.308 224.014 173.861 222.162C174.414 220.31 173.36 218.36 171.508 217.807L170.507 221.161L169.506 224.515ZM50.3389 147.115L47.4253 149.055L50.3389 147.115ZM30.4902 1.272C29.2595 -0.218623 27.0535 -0.429343 25.5628 0.801322L1.27183 20.8562C-0.218789 22.0868 -0.429524 24.2928 0.801141 25.7835C2.03181 27.2741 4.23785 27.4848 5.72846 26.2542L27.3205 8.42763L45.147 30.0196C46.3777 31.5103 48.5837 31.721 50.0743 30.4903C51.5649 29.2597 51.7757 27.0536 50.545 25.563L30.4902 1.272ZM170.507 221.161C171.508 217.807 171.508 217.807 171.508 217.807C171.508 217.807 171.507 217.807 171.506 217.807C171.505 217.806 171.501 217.805 171.497 217.804C171.488 217.801 171.474 217.797 171.454 217.791C171.415 217.779 171.355 217.761 171.274 217.736C171.113 217.687 170.87 217.612 170.55 217.512C169.91 217.312 168.96 217.01 167.737 216.608C165.289 215.804 161.748 214.6 157.395 213.005C148.684 209.814 136.746 205.069 123.834 198.852C97.852 186.342 68.5565 168.168 53.2524 145.176L50.3389 147.115L47.4253 149.055C63.8363 173.71 94.6249 192.558 120.798 205.159C133.964 211.498 146.121 216.33 154.987 219.578C159.422 221.203 163.038 222.433 165.552 223.259C166.809 223.672 167.791 223.984 168.461 224.193C168.797 224.298 169.054 224.377 169.23 224.431C169.318 224.458 169.385 224.478 169.431 224.492C169.454 224.499 169.472 224.505 169.485 224.508C169.491 224.51 169.496 224.512 169.499 224.513C169.501 224.513 169.503 224.514 169.504 224.514C169.505 224.514 169.506 224.515 170.507 221.161ZM50.3389 147.115L53.2524 145.176C37.9522 122.19 32.3346 87.1151 30.6664 57.245C29.8377 42.4061 29.9909 29.0336 30.3519 19.3705C30.5323 14.5411 30.7643 10.6437 30.9508 7.95952C31.044 6.61755 31.1258 5.57922 31.1839 4.87969C31.213 4.52993 31.2362 4.26491 31.2519 4.08899C31.2598 4.00106 31.2658 3.93538 31.2697 3.89256C31.2717 3.87115 31.2732 3.85545 31.2741 3.84553C31.2746 3.84055 31.2749 3.83704 31.2751 3.83496C31.2752 3.83394 31.2753 3.83347 31.2753 3.83296C31.2753 3.83286 31.2753 3.83313 27.7912 3.50031C24.307 3.1675 24.3069 3.16849 24.3068 3.16985C24.3067 3.17081 24.3065 3.17253 24.3064 3.17443C24.306 3.17821 24.3055 3.18343 24.3049 3.19012C24.3036 3.20349 24.3018 3.22265 24.2995 3.24756C24.2949 3.29733 24.2883 3.37004 24.2798 3.46514C24.2627 3.65529 24.2383 3.93497 24.208 4.29974C24.1473 5.02926 24.0631 6.09926 23.9676 7.47449C23.7766 10.2247 23.5402 14.1971 23.3567 19.1091C22.9899 28.929 22.8335 42.5264 23.6773 57.6354C25.3542 87.661 31.0105 124.394 47.4253 149.055L50.3389 147.115Z" fill="black"/>
</svg>
